<svg width="55" height="48" viewBox="0 0 55 48" fill="none" xmlns="http://www.w3.org/2000/svg">
<g clip-path="url(#clip0_17_15)">
<path d="M2.29167 12H52.7083C53.3161 12 53.899 11.7893 54.3288 11.4142C54.7586 11.0391 55 10.5304 55 10C55 9.46957 54.7586 8.96086 54.3288 8.58579C53.899 8.21071 53.3161 8 52.7083 8H2.29167C1.68388 8 1.10098 8.21071 0.671214 8.58579C0.241443 8.96086 0 9.46957 0 10C0 10.5304 0.241443 11.0391 0.671214 11.4142C1.10098 11.7893 1.68388 12 2.29167 12V12Z" fill="white"/>
<path d="M52.7083 18H2.29167C1.68388 18 1.10098 18.2107 0.671214 18.5858C0.241443 18.9609 0 19.4696 0 20C0 20.5304 0.241443 21.0391 0.671214 21.4142C1.10098 21.7893 1.68388 22 2.29167 22H52.7083C53.3161 22 53.899 21.7893 54.3288 21.4142C54.7586 21.0391 55 20.5304 55 20C55 19.4696 54.7586 18.9609 54.3288 18.5858C53.899 18.2107 53.3161 18 52.7083 18Z" fill="white"/>
<path d="M52.7083 38H2.29167C1.68388 38 1.10098 38.2107 0.671214 38.5858C0.241443 38.9609 0 39.4696 0 40C0 40.5304 0.241443 41.0391 0.671214 41.4142C1.10098 41.7893 1.68388 42 2.29167 42H52.7083C53.3161 42 53.899 41.7893 54.3288 41.4142C54.7586 41.0391 55 40.5304 55 40C55 39.4696 54.7586 38.9609 54.3288 38.5858C53.899 38.2107 53.3161 38 52.7083 38Z" fill="white"/>
<path d="M52.7083 28H2.29167C1.68388 28 1.10098 28.2107 0.671214 28.5858C0.241443 28.9609 0 29.4696 0 30C0 30.5304 0.241443 31.0391 0.671214 31.4142C1.10098 31.7893 1.68388 32 2.29167 32H52.7083C53.3161 32 53.899 31.7893 54.3288 31.4142C54.7586 31.0391 55 30.5304 55 30C55 29.4696 54.7586 28.9609 54.3288 28.5858C53.899 28.2107 53.3161 28 52.7083 28Z" fill="white"/>
</g>
<defs>
<clipPath id="clip0_17_15">
<rect width="55" height="48" fill="white"/>
</clipPath>
</defs>
</svg>
